<svg xmlns="http://www.w3.org/2000/svg" viewBox="0 0 200 200" width="64" height="64">
  <!-- خلفية دائرية -->
  <circle cx="100" cy="100" r="95" fill="#10a37f" stroke="#0d7a5f" stroke-width="5"/>
  
  <!-- دائرة داخلية -->
  <circle cx="100" cy="100" r="35" fill="#1e1e1e" stroke="#10a37f" stroke-width="3"/>
  
  <!-- أسهم الاتجاهات -->
  <!-- أعلى -->
  <g>
    <path d="M100 30 L110 50 L105 50 L105 70 L95 70 L95 50 L90 50 Z" fill="#fff"/>
    <circle cx="100" cy="22" r="4" fill="#10a37f"/>
  </g>
  
  <!-- يمين -->
  <g>
    <path d="M170 100 L150 90 L150 95 L130 95 L130 105 L150 105 L150 110 Z" fill="#fff"/>
    <circle cx="178" cy="100" r="4" fill="#10a37f"/>
  </g>
  
  <!-- أسفل -->
  <g>
    <path d="M100 170 L90 150 L95 150 L95 130 L105 130 L105 150 L110 150 Z" fill="#fff"/>
    <circle cx="100" cy="178" r="4" fill="#10a37f"/>
  </g>
  
  <!-- يسار -->
  <g>
    <path d="M30 100 L50 110 L50 105 L70 105 L70 95 L50 95 L50 90 Z" fill="#fff"/>
    <circle cx="22" cy="100" r="4" fill="#10a37f"/>
  </g>
  
  <!-- أسهم قطرية -->
  <!-- أعلى يمين -->
  <path d="M145 45 L150 60 L145 58 L130 73 L123 66 L138 51 L136 46 Z" fill="rgba(255,255,255,0.7)"/>
  
  <!-- أعلى يسار -->
  <path d="M55 45 L50 60 L55 58 L70 73 L77 66 L62 51 L64 46 Z" fill="rgba(255,255,255,0.7)"/>
  
  <!-- أسفل يمين -->
  <path d="M145 155 L150 140 L145 142 L130 127 L123 134 L138 149 L136 154 Z" fill="rgba(255,255,255,0.7)"/>
  
  <!-- أسفل يسار -->
  <path d="M55 155 L50 140 L55 142 L70 127 L77 134 L62 149 L64 154 Z" fill="rgba(255,255,255,0.7)"/>
  
  <!-- نص في المنتصف -->
  <text x="100" y="107" font-size="20" font-weight="bold" fill="#10a37f" text-anchor="middle">360°</text>
</svg>
